<?xml version="1.0" encoding="UTF-8"?>
<svg xmlns="http://www.w3.org/2000/svg" version="1.1" viewBox="0 0 52 440">
  <!-- Generator: Adobe Illustrator 29.8.4, SVG Export Plug-In . SVG Version: 2.1.1 Build 6)  -->
  <defs>
    <style>
      .st0 {
        fill: #fff;
      }

      .st1 {
        fill: #546bb3;
      }
    </style>
  </defs>
  <g id="blue_base">
    <g id="pencil_bottom">
      <path class="st1" d="M24.64,440l6.57-20.58c-4.39,3.32-8.5,3.34-12.33.06,0,0,5.76,20.51,5.76,20.51Z"/>
      <path class="st1" d="M52,354.99l-14.8,6.3-24.59.13-12.61-7.32,18.88,65.38c3.83,3.28,7.94,3.26,12.33-.06l20.79-64.43Z"/>
      <path class="st1" d="M0,86.91v267.19l12.84,7.32V86.91H0Z"/>
      <path class="st1" d="M12.84,86.91v274.51l24.4-.13V86.91H12.84Z"/>
      <path class="st1" d="M37.23,86.91v274.38l14.77-6.3V86.91s-14.77,0-14.77,0Z"/>
    </g>
    <g id="eraser">
      <path class="st1" d="M50.46,40.89V7.64H1.67v33.38l48.79-.13Z"/>
      <path class="st1" d="M1.67,7.7c0,2.09,2.38,3.89,7.13,5.39,4.75,1.54,10.5,2.31,17.27,2.31s12.52-.77,17.27-2.31c4.75-1.5,7.13-3.3,7.13-5.39s-2.38-3.98-7.13-5.52C38.79.8,33.31.06,26.9,0h-.83c-2.3,0-4.48.09-6.55.26-4.02.32-7.59.96-10.72,1.93C4.04,3.72,1.67,5.56,1.67,7.7Z"/>
      <path class="st1" d="M52,90.07v-54.57c-18.19,6.84-35.53,6.84-52,0v54.57c17.33,10.44,34.67,10.44,52,0Z"/>
    </g>
  </g>
  <g id="outline">
    <g id="pencil_outline">
      <path class="st0" d="M24.94,423.7l5.13-17.07c-3.43,2.6-6.64,2.61-9.63.05l4.5,17.02Z"/>
      <path class="st0" d="M45.34,84.76c-.16.23-.23.48-.2.75.45,3.99.6,8.09.47,12.28h0c-.11,4.29-.23,8.33-.34,12.09-.12,3.83,0,7.74.31,11.73.35,3.93.28,7.85-.19,11.78-.49,4.08-.62,8.17-.39,12.24.22,3.99.32,7.9.31,11.73.02,3.88.06,7.94.11,12.18h0c.09,4.31-.18,8.58-.16,12.43.05,3.9.06,7.78.01,11.63-.05,3.9-.08,7.73-.09,11.48.02,3.75.07,7.78.16,12.08.12,4.33-.25,9.68-.26,13.86,0,4.21.01,8.19.06,11.93.05,3.77.04,7.63-.04,11.58-.08,3.99-.14,8.05-.19,12.19-.05,4.2-.06,8.3-.04,12.29s.09,8.01.21,12.08c.12,4.07.11,8.04-.04,11.93h0c-.11,3.92-.26,7.88-.44,11.89-.18,4.04-.18,8.24.02,12.59.22,4.34.45,8.45.67,12.33.25,3.83.25,6.78,0,8.83v.05c-.21,1.97-.31,4.27-.31,6.92-3.25,1.45-5.8,2.59-7.65,3.4l-.05.05c-.67.32-1.15.61-1.45.86.44-5.95.62-9.85.54-11.69-.04-1.9-.16-4.92-.35-9.07-.18-4.07-.12-8.09.19-12.09.32-4.03.35-8.24.08-12.59-.22-4.3-.39-8.21-.51-11.73-.09-3.47-.04-7.28.14-11.43.18-4.2.19-8.23.04-12.08-.15-3.78-.39-7.7-.71-11.78-.28-3.98-.29-8.04-.01-12.19s.44-8.26.49-12.34c.08-4.04.11-8.05.09-12.04,0-3.98.21-9.07.36-13.41.15-4.4.03-8.34-.36-11.83-.35-3.36-.4-7.12-.16-11.28.28-4.22.41-8.37.39-12.44,0-4.03.05-8.9.17-10.87.12-1.95.15-4.86.05-8.78v-.05c-.05-3.85-.09-7.62-.11-11.33.01-3.71-.01-7.74-.06-12.08-.02-4.3-.02-8.34-.01-12.13h0c.05-3.79-.07-7.82-.36-12.08v-.05c-.25-4.12-.13-8.12.34-11.99.49-3.97.44-8.14-.17-12.49-.04-.26-.18-.48-.4-.65s-.47-.24-.75-.2c-.26.04-.48.18-.65.4s-.24.45-.2.7c.57,4.17.63,8.17.16,11.98-.49,3.98-.6,8.12-.34,12.39h0c.29,4.22.41,8.2.36,11.93v.05c-.01,3.78,0,7.82.01,12.13.05,4.34.07,8.37.06,12.08.02,3.71.06,7.5.11,11.38h0c.09,3.85.07,6.73-.06,8.63-.12,2-.16,6.98-.17,11.02.02,4.02-.11,8.11-.39,12.29-.25,4.29-.2,8.17.16,11.63.38,3.4.5,7.24.36,11.53-.15,4.35-.35,9.53-.36,13.51.02,3.97,0,7.96-.09,11.98-.05,4.04-.21,8.12-.49,12.24-.28,4.24-.28,8.41.02,12.49.32,4.04.56,7.94.71,11.68.15,3.8.14,7.78-.04,11.93-.18,4.2-.23,8.06-.14,11.58.12,3.53.29,7.46.51,11.78.25,4.27.22,8.38-.09,12.34-.32,4.07-.38,8.19-.19,12.34.19,4.13.31,7.14.35,9.02.07,1.84-.13,5.78-.59,11.79-3.51-.19-6.35-.33-8.53-.41-2.19-.09-5.12.07-8.82.45-.33-3.64-.4-7.23-.21-10.78h0c.25-3.92.43-7.94.54-12.04.15-4.06.26-8.1.34-12.14.12-4.01-.07-7.94-.56-11.78-.48-3.66-.58-7.61-.31-11.83.31-4.24.48-8.28.49-12.09h0c.05-3.73.14-7.57.29-11.53.15-4.02.06-8.29-.27-12.84-.28-4.38-.35-8.49-.16-12.33.21-3.86.33-7.8.34-11.84,0-3.98.03-7.97.04-11.98,0-3.99-.35-10.01-.24-14.01.11-3.99.18-7.79.19-11.38h0c.05-3.58.06-7.52.04-11.83s-.07-7.4-.15-9.33c-.04-1.88.16-6.8-.13-10.92-.28-3.99-.18-7.97.29-11.94.49-4.06.57-8.16.24-12.29-.28-3.98-.3-7.9-.06-11.78.25-3.96.1-8.02-.46-12.18-.55-3.99-.68-7.94-.41-11.83.32-3.94.46-6.88.41-8.83-.04-1.88-.03-6.13.03-12.74,0-.26-.09-.5-.3-.7-.18-.2-.41-.3-.7-.3-.26,0-.5.08-.7.25-.2.21-.3.44-.3.7-.07,6.66-.07,10.94-.03,12.84.04,1.91-.1,4.77-.41,8.63-.29,4.03-.15,8.1.42,12.23.55,4.03.7,7.95.46,11.78-.25,3.98-.23,8,.06,12.08.31,3.99.23,7.95-.24,11.89-.49,4.09-.58,8.21-.29,12.34.28,4.04.09,8.93.13,10.82.08,1.92.13,5.01.15,9.28s.01,8.23-.04,11.78v.05c-.01,3.57-.08,7.35-.19,11.33-.12,4.07.25,10.02.24,14.06,0,4.01-.03,8-.04,11.98,0,3.99-.13,7.9-.34,11.74-.18,3.91-.13,8.1.17,12.59h0c.32,4.45.41,8.64.27,12.58-.15,3.99-.24,7.85-.29,11.58v.05c-.01,3.75-.18,7.73-.49,11.94-.29,4.36-.18,8.45.31,12.23.48,3.74.67,7.57.56,11.48-.08,4.02-.19,8.06-.34,12.14h0c-.11,4.08-.29,8.05-.54,11.94v.05c-.18,3.38-.13,6.82.15,10.33-1.41-.83-3.92-2.37-7.55-4.62-.24-3.75-.26-7.54-.06-11.38h0c.25-4.03.31-8.2.19-12.49-.12-4.23-.26-8.25-.41-12.08-.15-3.75-.05-7.58.29-11.48.38-3.98.55-8.08.49-12.29-.05-4.15-.12-8.2-.21-12.13-.09-3.86-.02-7.64.19-11.33.25-3.72.36-7.59.34-11.64s-.24-8.14-.67-12.28c-.38-4.04-.52-8.15-.42-12.33.11-4.19.21-8.31.29-12.34.08-3.99.19-3.1.34-7.34.18-4.25-.38-1.8-.28-6.17.11-4.31.33-8.38.64-12.19.35-3.81.53-7.6.54-11.39h0c.05-3.76-.62-6.05-.48-9.87.18-3.86.03-7.92-.46-12.18-.45-4.1-.45-8.14-.01-12.13.45-4.08.55-8.29.29-12.59-.22-4.23-.34-8.2-.36-11.93s.09-7.5.34-11.43c.25-3.95.34-8.03.29-12.24-.02-4.21-.12-7.32-.3-9.33-.18-1.9-.3-4.83-.35-8.77,0-.27-.1-.51-.3-.7-.19-.2-.43-.3-.7-.3s-.51.1-.7.3c-.2.19-.3.43-.3.7.05,4.01.17,6.99.35,8.92.18,1.97.28,5.03.3,9.17.05,4.15-.04,8.18-.29,12.09-.25,3.99-.36,7.85-.34,11.59.02,3.76.14,7.77.36,12.03.25,4.18.15,8.26-.29,12.24-.45,4.13-.45,8.34.02,12.59.48,4.16.64,8.12.46,11.88-.15,3.88.53,6.22.48,9.92v.05c-.01,3.71-.19,7.45-.54,11.24h0c-.31,3.84-.53,7.95-.64,12.29-.11,4.42.46,1.95.28,6.12-.15,4.25-.26,3.39-.34,7.39-.08,4.03-.18,8.14-.29,12.34-.12,4.27.02,8.46.42,12.58.42,4.08.64,8.1.66,12.08s-.09,7.81-.34,11.48c-.21,3.76-.28,7.6-.19,11.53.09,3.92.16,7.95.21,12.08.05,4.14-.11,8.17-.49,12.09-.35,3.99-.45,7.91-.29,11.74.15,3.83.29,7.85.41,12.08.12,4.23.06,8.32-.19,12.29v.05c-.21,4.03-.18,8.02.11,11.98-.02.13-.02.24,0,.35,1.78,6.2,2.96,10.1,3.57,11.72.64,1.6,1.33,4.51,2.05,8.71.82,4.42,1.95,8.62,3.43,12.62,1.44,3.87,2.49,7.46,3.12,10.76v.05c.71,3.43,1.93,7.21,3.67,11.36,1.71,4.06,2.78,8.97,3.22,12.72.02.14.05.26.1.35.08.14.17.24.25.3.23.19.48.28.75.25.14-.02.26-.07.35-.15.14-.05.24-.13.3-.25.15-.14.23-.31.25-.5,1.81-6.46,3.02-11.56,3.65-13.3.62-1.75,1.56-4.53,2.81-8.34,1.24-3.72,2.58-7.46,4-11.25,1.51-3.81,2.72-7.6,3.6-11.35.92-3.7,2.05-7.49,3.35-11.4,1.36-3.89,2.56-7.76,3.6-11.6.03-.03.05-.08.05-.15,0-.07,0-.15,0-.25-.01-2.76.09-5.17.31-7.22.26-2.13.26-5.19,0-9.18-.22-3.88-.44-7.99-.67-12.33-.19-4.28-.19-8.4-.01-12.39.18-4.01.33-7.97.44-11.89.15-3.93.16-7.96.04-12.08-.12-4.05-.19-8.06-.21-12.03s-.01-8.05.04-12.24c.05-4.13.11-8.19.19-12.19.08-3.97.09-7.85.04-11.63-.05-3.74-.07-7.72-.06-11.93,0-4.18.38-9.52.26-13.91-.09-4.28-.14-8.29-.16-12.03.01-3.74.04-7.54.09-11.43.05-3.87.04-7.76-.01-11.68-.02-3.82.25-8.24.16-12.43v-.05c-.05-4.21-.09-8.26-.11-12.13,0-3.86-.09-7.8-.31-11.83-.21-3.95-.08-7.91.39-11.89.49-4.06.55-8.13.19-12.19-.32-3.93-.42-7.77-.31-11.53.11-3.75.23-7.76.34-12.04v-.05c.15-4.27,0-8.45-.47-12.53-.03-.27-.17-.51-.4-.7-.2-.16-.43-.23-.7-.2-.27.03-.51.15-.7.35M25.17,361.72c2.37.09,5.53.25,9.48.5.28.02.51-.07.7-.25.71-.15,1.64-.51,2.8-1.07h0c1.58-.69,3.67-1.62,6.25-2.79-.88,3.11-1.86,6.25-2.96,9.39-1.32,3.96-2.46,7.82-3.4,11.55h0c-.85,3.69-2.02,7.38-3.5,11.1-1.44,3.82-2.8,7.61-4.05,11.35-1.25,3.79-2.19,6.55-2.81,8.29h0c-.47,1.39-1.31,4.18-2.51,8.39-.59-2.54-1.46-5.17-2.6-7.86-1.69-4.02-2.87-7.7-3.57-11.01-.64-3.42-1.7-7.12-3.17-11.12-1.44-3.88-2.57-7.97-3.37-12.27-.76-4.38-1.47-7.4-2.15-9.06-.5-1.36-1.42-4.39-2.76-9.06,4.82,2.99,7.43,4.49,7.85,4.52h.2s.05,0,.05,0c4.05-.48,7.23-.68,9.52-.6Z"/>
    </g>
    <g id="outline_eraser">
      <path class="st0" d="M5.99,11.51c-.2.23-.3.51-.3.83.04,8.05-.02,13.21-.18,15.47-.16,2.35-.06,6,.3,10.96.02.34.14.62.35.83.21.21.44.32.7.29.29-.03.52-.17.7-.42.18-.25.27-.55.25-.89-.35-4.8-.45-8.33-.3-10.61.16-2.29.22-7.51.18-15.65,0-.32-.1-.6-.3-.83-.19-.24-.43-.35-.7-.35s-.51.12-.7.36M45.65,22.17c-.42-2.04-.36-5.33.16-9.9.04-.33-.03-.63-.2-.89-.16-.26-.38-.42-.65-.47-.28-.05-.53.04-.75.24-.22.19-.36.45-.4.77-.57,5.01-.6,8.62-.1,10.85.47,2.08.54,7.26.22,15.53-.02.33.07.6.25.83.19.26.42.4.7.41.28.02.51-.09.7-.3.22-.23.34-.5.35-.83.34-8.64.25-14.06-.27-16.24Z"/>
      <path class="st0" d="M43.34,7.98l-.05-.05c-.59-.39-1.21-.74-1.88-1.04v.05c-.6-.29-1.24-.54-1.93-.74-.66-.21-1.34-.4-2.03-.59h-.05c-.68-.12-1.35-.24-2.03-.39h-.05c-.68-.1-1.35-.19-2.03-.29-.69-.1-1.39-.17-2.08-.24-.69-.07-1.39-.11-2.08-.14-.66-.03-1.33-.04-2.03-.04h-2.08c-.69.01-1.4.04-2.13.07-.68.03-1.37.08-2.08.11h-.05c-.68.07-1.35.14-2.03.21h-.05c-.68.1-1.35.21-2.03.31-.69.11-1.39.23-2.08.36h-.05c-.68.19-1.39.4-2.13.61-.71.2-1.42.43-2.13.66h-.05c-.7.3-1.37.62-2.02.96,0,.02-.02.04-.05.05-.67.43-1.23.94-1.72,1.51,0,.03-.02.05-.05.05-.48.75-.7,1.54-.65,2.36v.05c.1.81.42,1.52.98,2.15.52.59,1.09,1.06,1.73,1.4h0c.63.37,1.28.67,1.93.89v-.05c.64.27,1.3.48,1.98.64h-.05c.68.21,1.35.37,2.03.49h-.05c.68.19,1.35.33,2.03.44l-.05-.05c.69.16,1.37.26,2.03.34.69.1,1.37.17,2.03.24.69.07,1.37.11,2.03.14.68.03,1.35.04,2.03.04.69.03,1.39.02,2.08-.01h.05c.66,0,1.3-.03,1.93-.06h.05c.68,0,1.35-.04,2.03-.11.71-.03,1.42-.11,2.13-.21.69-.08,1.39-.2,2.08-.36l-.05.05c.71-.11,1.4-.27,2.08-.46.68-.16,1.36-.35,2.03-.56h0c.71-.16,1.4-.39,2.08-.66.02,0,.03-.02.05-.05.68-.24,1.32-.55,1.92-.91.68-.39,1.25-.9,1.72-1.51.5-.5.92-1.1,1.26-1.76.12-.25.14-.52.05-.8-.02-.06-.06-.12-.1-.2-.43-1.08-.83-1.74-1.18-2-.24-.22-.65-.52-1.22-.9M43.25,10.38c.13.15.31.47.51.95-.21.38-.46.71-.76,1.01,0,.03-.02.05-.05.05-.31.43-.7.79-1.16,1.06-.53.3-1.08.56-1.67.76h-.05c-.59.26-1.2.47-1.82.61l-.05.05c-.65.19-1.31.37-1.98.51-.61.17-1.24.32-1.88.41h-.05c-.64.14-1.29.25-1.93.31h-.05c-.64.1-1.29.17-1.93.21h-.05c-.64.06-1.29.11-1.93.11h-.05c-.63.03-1.27.06-1.93.06h-.05c-.64.03-1.29.04-1.93.01h-.05c-.66,0-1.32-.01-1.98-.04-.63-.03-1.27-.07-1.93-.14-.63-.07-1.27-.14-1.93-.24h-.05c-.61-.06-1.24-.15-1.88-.29h-.05c-.61-.09-1.22-.22-1.83-.39h-.05c-.61-.11-1.22-.25-1.83-.44-.02,0-.03-.03-.05-.05-.6-.14-1.19-.31-1.78-.54h-.05c-.53-.17-1.06-.41-1.58-.69v-.05c-.45-.23-.86-.54-1.22-.95-.27-.31-.42-.66-.46-1.05,0-.36.09-.71.3-1.05l-.05.05c.36-.4.78-.76,1.26-1.06h-.1c.58-.29,1.16-.57,1.77-.81.68-.23,1.35-.46,2.03-.66.72-.19,1.41-.38,2.08-.56h-.05c.66-.11,1.32-.22,1.98-.31.68-.1,1.35-.21,2.03-.31.66-.07,1.32-.15,1.98-.21.69-.03,1.37-.08,2.03-.11.69-.03,1.37-.06,2.03-.06h2.08c.66-.01,1.3,0,1.93.03.66.03,1.32.07,1.98.14.66.07,1.32.14,1.98.24.68.1,1.35.19,2.03.29l-.05-.05c.68.15,1.35.27,2.03.39h-.05c.66.18,1.3.35,1.93.54.6.19,1.16.4,1.68.64h.05c.55.25,1.06.54,1.53.84h.05c.49.36.85.62,1.07.8Z"/>
      <path class="st0" d="M36.96,40.09h-.05c-2.56.62-5.17,1.02-7.82,1.19h-.05c-2.61.21-5.23.21-7.87,0-2.6-.22-5.18-.63-7.73-1.26-2.52-.59-5.03-1.3-7.53-2.12-.07-.02-.15-.03-.25-.05-.21-.03-.41,0-.6.1-.05.03-.1.06-.15.1-.02.02-.04.03-.05.05-.19.16-.31.36-.35.6-.64,4.5-.67,8.8-.1,10.88h0c.56,1.97.75,6.77.55,10.37-.21,3.76-.31,8.77-.29,13.04.05,4.22.07,8.31.06,12.29-.02.16-.02.31,0,.45.09.27.26.47.5.6,1.79,1.03,3.32,1.8,4.58,2.28,1.28.51,3.21,1.15,5.78,1.88,2.66.78,5.34,1.26,8.03,1.41,2.78.19,5.5.04,8.17-.44v.05c2.68-.44,5.26-1.15,7.76-2.15,2.45-.94,4.83-2,7.15-3.2h.1c.25-.12.41-.32.5-.6.03-.06.05-.14.05-.25v-.15s0-.05,0-.05c-.41-3.97-.41-7.03,0-9.18.53-2.26.63-6.57.3-10.93-.32-4.14-.34-10.07-.06-13.78.29-3.8.14-8.71-.46-12.73-.03-.19-.11-.36-.25-.5-.08-.12-.2-.22-.35-.3-.17-.06-.35-.08-.55-.05-.13.02-.24.05-.35.1-.64.26-1.57.55-2.8.87v.05c-1.28.4-3.23.88-5.86,1.43M29.2,43.29c2.78-.19,5.49-.6,8.17-1.25,2.71-.58,4.74-1.07,6.06-1.49h-.05c.74-.19,1.37-.38,1.9-.56.45,3.45.55,7.81.3,11.08-.28,3.81-.26,9.83.06,14.08.31,4.1.23,8.21-.25,10.33v.05c-.44,2.15-.49,5.2-.15,9.13-2.08,1.05-4.21,2-6.4,2.84-2.37.94-4.83,1.6-7.36,1.99h-.05c-2.5.44-5.06.58-7.67.39-2.56-.15-5.1-.59-7.63-1.31-2.48-.71-4.34-1.32-5.58-1.83-1.07-.42-2.34-1.05-3.82-1.89,0-3.85-.01-7.81-.06-11.88-.02-4.23.08-9.2.29-12.94.23-3.88.02-8.89-.6-11.02-.43-1.71-.43-5.34,0-8.87,2.18.69,4.37,1.3,6.58,1.82h0c2.68.65,5.37,1.09,8.08,1.31,2.74.23,5.46.22,8.17,0h0Z"/>
    </g>
  </g>
</svg>