<?xml version="1.0" encoding="UTF-8"?>
<svg id="Layer_1" xmlns="http://www.w3.org/2000/svg" version="1.1" viewBox="0 0 44.73 445.4">
	<!-- Generator: Adobe Illustrator 29.8.4, SVG Export Plug-In . SVG Version: 2.1.1 Build 6)	-->
	<defs>
		<style>
			.st0 {
				fill: #546bb3;
			}
		</style>
	</defs>
	<g>
		<path class="st0" d="M19.86,444.4l5.2-16c-3.43,2.57-6.63,2.57-9.6,0l4.4,16Z"/>
		<path class="st0" d="M42.16,70.65c-.16.23-.23.48-.2.75.43,3.98.56,8.07.4,12.25h0c-.13,4.28-.27,8.3-.4,12.05-.14,3.82-.05,7.72.25,11.7.33,3.92.24,7.83-.25,11.75-.51,4.07-.66,8.14-.45,12.2.2,3.98.28,7.88.25,11.7,0,3.87.02,7.92.05,12.15h0c.07,4.3.2,7.33.4,9.1.21,1.59.06,3.06-.45,4.4-.05.11-.08.23-.1.35-.01.09-.01.18,0,.25-.1,4.33-.15,8.41-.15,12.25.03,3.89.02,7.76-.05,11.6-.07,3.89-.12,7.71-.15,11.45,0,3.74.03,7.76.1,12.05.1,4.32.07,8.61-.1,12.85h0c-.13,4.33-.22,8.34-.25,12.05-.03,3.73-.07,7.68-.1,11.85-.03,4.2-.03,8.17,0,11.9.03,3.76,0,7.61-.1,11.55-.1,3.98-.18,8.03-.25,12.15-.07,4.19-.1,8.28-.1,12.25,0,3.97.05,7.99.15,12.05.1,4.06.07,8.02-.1,11.9h0c-.13,3.91-.3,7.86-.5,11.85-.2,4.03-.22,8.22-.05,12.55.2,4.33.4,8.43.6,12.3.23,3.82.21,6.76-.05,8.8v.05c-.22,1.96-.33,4.26-.35,6.9-3.25,1.43-5.8,2.55-7.65,3.35l-.05.05c-.67.32-1.15.6-1.45.85.47-5.93.67-9.82.6-11.65-.03-1.89-.13-4.91-.3-9.05-.16-4.06-.08-8.07.25-12.05.34-4.02.39-8.21.15-12.55-.2-4.29-.35-8.19-.45-11.7-.07-3.46,0-7.26.2-11.4.2-4.19.23-8.21.1-12.05-.13-3.77-.35-7.68-.65-11.75-.26-3.97-.25-8.02.05-12.15.3-4.13.48-8.23.55-12.3.1-4.03.15-8.03.15-12,.03-3.97.05-7.92.05-11.85,0-3.93.03-7.91.1-11.95.1-4.01.23-8.18.4-12.5.17-4.39.07-8.32-.3-11.8-.33-3.35-.36-7.1-.1-11.25.3-4.21.45-8.34.45-12.4.03-4.02.08-8.12.15-12.3v-.05c-.03-6.33.02-10.48.15-12.45.13-1.94.17-4.85.1-8.75v-.05c-.03-3.84-.05-7.6-.05-11.3.03-3.7.03-7.72,0-12.05,0-4.29.02-8.32.05-12.1h0c.07-3.78-.03-7.8-.3-12.05v-.05c-.23-4.11-.09-8.1.4-11.95.51-3.96.48-8.11-.1-12.45-.04-.26-.18-.48-.4-.65-.22-.17-.47-.24-.75-.2-.26.04-.48.18-.65.4-.17.22-.24.45-.2.7.55,4.16.59,8.15.1,11.95-.51,3.97-.64,8.09-.4,12.35h0c.27,4.21.37,8.18.3,11.9v.05c-.03,3.77-.05,7.8-.05,12.1.03,4.33.03,8.35,0,12.05,0,3.7.02,7.48.05,11.35h0c.07,3.84.03,6.71-.1,8.6-.13,1.99-.18,6.19-.15,12.6v.05c-.07,4.17-.12,8.27-.15,12.3,0,4.01-.15,8.09-.45,12.25-.27,4.28-.24,8.15.1,11.6.36,3.39.46,7.22.3,11.5-.17,4.34-.3,8.53-.4,12.55-.07,4.06-.1,8.06-.1,12,0,3.93-.02,7.88-.05,11.85,0,3.96-.05,7.94-.15,11.95-.07,4.03-.25,8.1-.55,12.2-.3,4.23-.32,8.38-.05,12.45.3,4.03.52,7.92.65,11.65.13,3.79.1,7.76-.1,11.9-.2,4.19-.27,8.04-.2,11.55.1,3.52.25,7.44.45,11.75.23,4.26.18,8.36-.15,12.3-.34,4.06-.42,8.16-.25,12.3.17,4.12.27,7.12.3,9,.06,1.84-.16,5.76-.65,11.75-3.5-.21-6.33-.36-8.5-.45-2.18-.1-5.11.04-8.8.4-.31-3.63-.36-7.21-.15-10.75h0c.27-3.91.47-7.91.6-12,.17-4.05.3-8.08.4-12.1.14-4-.03-7.92-.5-11.75-.46-3.65-.54-7.59-.25-11.8.33-4.23.52-8.25.55-12.05h0c.07-3.72.18-7.55.35-11.5.17-4.01.1-8.27-.2-12.8-.26-4.37-.3-8.47-.1-12.3.23-3.85.37-7.78.4-11.8.03-3.97.07-7.95.1-11.95.03-3.98.2-7.96.5-11.95.3-4.01.25-8.21-.15-12.6-.4-4.26-.53-8.37-.4-12.35.13-3.98.22-7.77.25-11.35h0c.07-3.57.1-7.5.1-11.8,0-4.28-.03-7.38-.1-9.3-.03-1.87.03-6.09.2-12.65h0c.13-4.03.07-8.09-.2-12.2-.26-3.98-.14-7.95.35-11.9.51-4.05.61-8.13.3-12.25-.26-3.97-.26-7.88,0-11.75.27-3.95.14-8-.4-12.15-.53-3.98-.64-7.92-.35-11.8.34-3.93.49-6.86.45-8.8-.03-1.87,0-6.11.1-12.7,0-.26-.09-.5-.3-.7-.18-.2-.41-.3-.7-.3-.26,0-.5.08-.7.25-.2.21-.3.44-.3.7-.1,6.64-.13,10.91-.1,12.8.03,1.9-.12,4.76-.45,8.6-.31,4.02-.19,8.08.35,12.2.53,4.02.66,7.93.4,11.75-.27,3.97-.27,7.98,0,12.05.29,3.98.19,7.93-.3,11.85-.51,4.08-.62,8.18-.35,12.3.26,4.03.33,8.01.2,11.95v.1c-.17,6.58-.23,10.81-.2,12.7.07,1.91.1,5,.1,9.25,0,4.29-.03,8.21-.1,11.75v.05c-.03,3.56-.12,7.33-.25,11.3-.14,4.06,0,8.26.4,12.6.4,4.27.45,8.36.15,12.25-.3,4.04-.47,8.08-.5,12.1-.03,4-.07,7.98-.1,11.95-.03,3.98-.17,7.88-.4,11.7-.2,3.9-.17,8.08.1,12.55h0c.3,4.44.36,8.62.2,12.55-.17,3.98-.28,7.83-.35,11.55v.05c-.03,3.74-.22,7.71-.55,11.9-.31,4.35-.22,8.42.25,12.2.46,3.73.63,7.55.5,11.45-.1,4.01-.23,8.04-.4,12.1h0c-.13,4.07-.33,8.03-.6,11.9v.05c-.2,3.37-.17,6.8.1,10.3-1.4-.83-3.9-2.38-7.5-4.65-.22-3.74-.22-7.52,0-11.35h0c.27-4.02.35-8.17.25-12.45-.1-4.22-.22-8.23-.35-12.05-.13-3.74-.01-7.56.35-11.45.4-3.97.59-8.05.55-12.25-.03-4.14-.08-8.18-.15-12.1-.07-3.85.02-7.62.25-11.3.27-3.71.4-7.57.4-11.6,0-4.03-.2-8.12-.6-12.25-.36-4.03-.48-8.13-.35-12.3.13-4.18.25-8.28.35-12.3.1-3.98.23-8.08.4-12.3.2-4.24.19-8.24-.05-12-.2-3.71-.23-7.74-.1-12.1.13-4.3.37-8.35.7-12.15.37-3.8.57-7.58.6-11.35h0c.07-3.75-.02-7.72-.25-11.9-.23-4.13-.26-8.1-.1-11.9.2-3.85.07-7.9-.4-12.15-.43-4.09-.41-8.12.05-12.1.47-4.07.59-8.26.35-12.55-.2-4.22-.3-8.18-.3-11.9,0-3.68.13-7.48.4-11.4.27-3.94.38-8.01.35-12.2,0-4.2-.08-7.3-.25-9.3-.17-1.9-.27-4.82-.3-8.75,0-.27-.1-.51-.3-.7-.19-.2-.43-.3-.7-.3-.27,0-.51.1-.7.3-.2.19-.3.43-.3.7.03,4,.13,6.97.3,8.9.17,1.97.25,5.02.25,9.15.03,4.14-.08,8.16-.35,12.05-.27,3.98-.4,7.83-.4,11.55,0,3.75.1,7.75.3,12,.23,4.17.11,8.24-.35,12.2-.47,4.12-.49,8.31-.05,12.55.46,4.15.6,8.1.4,11.85-.17,3.87-.14,7.9.1,12.1.23,4.14.32,8.06.25,11.75v.05c-.03,3.7-.23,7.43-.6,11.2h0c-.33,3.83-.57,7.92-.7,12.25-.13,4.41-.1,8.49.1,12.25.23,3.7.25,7.64.05,11.8-.17,4.24-.3,8.36-.4,12.35-.1,4.02-.22,8.12-.35,12.3-.14,4.26-.02,8.44.35,12.55.4,4.07.6,8.08.6,12.05,0,3.97-.13,7.79-.4,11.45-.23,3.75-.32,7.58-.25,11.5.07,3.91.12,7.93.15,12.05.03,4.13-.15,8.15-.55,12.05-.37,3.98-.49,7.88-.35,11.7.13,3.82.25,7.83.35,12.05.1,4.22.02,8.3-.25,12.25v.05c-.23,4.02-.22,8,.05,11.95-.02.13-.02.24,0,.35,1.74,6.19,2.9,10.09,3.5,11.7.63,1.6,1.3,4.5,2,8.7.79,4.41,1.9,8.61,3.35,12.6,1.42,3.87,2.44,7.45,3.05,10.75v.05c.69,3.42,1.89,7.2,3.6,11.35,1.68,4.06,2.73,7.96,3.15,11.7.02.14.05.26.1.35.08.14.17.24.25.3.23.19.48.28.75.25.14-.02.26-.07.35-.15.14-.05.24-.13.3-.25.15-.14.23-.31.25-.5,1.84-6.43,3.07-10.51,3.7-12.25.63-1.74,1.58-4.51,2.85-8.3,1.26-3.7,2.61-7.43,4.05-11.2,1.53-3.79,2.75-7.56,3.65-11.3.94-3.68,2.08-7.46,3.4-11.35,1.38-3.87,2.59-7.72,3.65-11.55.03-.03.05-.08.05-.15.01-.07.01-.15,0-.25,0-2.75.12-5.15.35-7.2.27-2.12.29-5.17.05-9.15-.2-3.87-.4-7.97-.6-12.3-.17-4.27-.15-8.38.05-12.35.2-4,.37-7.95.5-11.85.17-3.92.2-7.94.1-12.05-.1-4.04-.15-8.04-.15-12,0-3.96.03-8.03.1-12.2.07-4.12.15-8.17.25-12.15.1-3.96.13-7.83.1-11.6-.03-3.73-.03-7.7,0-11.9.03-4.17.07-8.12.1-11.85.03-3.69.12-7.67.25-11.95.17-4.29.2-8.62.1-13-.07-4.27-.1-8.27-.1-12,.03-3.73.08-7.52.15-11.4.07-3.86.08-7.74.05-11.65,0-3.81.05-7.86.15-12.15.61-1.64.79-3.4.55-5.3-.2-1.75-.33-4.72-.4-8.9v-.05c-.03-4.2-.05-8.24-.05-12.1.03-3.85-.05-7.78-.25-11.8-.19-3.94-.04-7.89.45-11.85.51-4.05.59-8.1.25-12.15-.3-3.92-.38-7.75-.25-11.5.13-3.74.27-7.74.4-12v-.05c.17-4.26.04-8.43-.4-12.5-.03-.27-.17-.51-.4-.7-.2-.16-.43-.23-.7-.2-.27.03-.51.15-.7.35M20.41,383.6c2.36.1,5.51.28,9.45.55.28.02.51-.07.7-.25.71-.15,1.64-.5,2.8-1.05h0c1.58-.68,3.67-1.6,6.25-2.75-.89,3.1-1.89,6.22-3,9.35-1.34,3.94-2.49,7.78-3.45,11.5h0c-.87,3.67-2.05,7.35-3.55,11.05-1.46,3.8-2.83,7.57-4.1,11.3-1.27,3.77-2.22,6.52-2.85,8.25h0c-.48,1.38-1.33,4.16-2.55,8.35-.58-2.54-1.43-5.16-2.55-7.85-1.66-4.02-2.82-7.69-3.5-11-.62-3.41-1.66-7.11-3.1-11.1-1.42-3.88-2.52-7.96-3.3-12.25-.73-4.37-1.43-7.39-2.1-9.05-.49-1.36-1.39-4.38-2.7-9.05,4.79,3.01,7.39,4.52,7.8,4.55.07,0,.14,0,.2,0h.05c4.04-.46,7.21-.64,9.5-.55Z"/>
	</g>
	<path class="st0" d="M3.26,6.25c-.2.19-.3.43-.3.7,0,6.79-.08,11.14-.25,13.05-.17,1.98-.09,5.06.25,9.25.02.29.14.52.35.7.21.18.44.27.7.25.29-.02.52-.14.7-.35.18-.21.27-.46.25-.75-.33-4.05-.41-7.03-.25-8.95.17-1.93.25-6.33.25-13.2,0-.27-.1-.51-.3-.7-.19-.2-.43-.3-.7-.3-.27,0-.51.1-.7.3M42.76,15.45c-.41-1.72-.34-4.5.2-8.35.04-.28-.03-.53-.2-.75-.16-.22-.38-.36-.65-.4-.28-.04-.53.03-.75.2-.22.16-.36.38-.4.65-.59,4.22-.64,7.27-.15,9.15.46,1.76.51,6.13.15,13.1-.02.28.07.51.25.7.19.22.42.34.7.35.28.02.51-.07.7-.25.22-.19.34-.42.35-.7.38-7.29.31-11.86-.2-13.7Z"/>
	<path class="st0" d="M40.46,3.55l-.05-.05c-.58-.39-1.19-.74-1.85-1.05v.05c-.59-.29-1.22-.54-1.9-.75-.65-.21-1.32-.41-2-.6h-.05c-.67-.12-1.33-.25-2-.4-.02,0-.03,0-.05,0-.67-.1-1.33-.2-2-.3-.68-.1-1.37-.18-2.05-.25-.68-.07-1.37-.12-2.05-.15C25.81.02,25.15,0,24.46,0h-2.05c-.68,0-1.38.02-2.1.05-.67.03-1.35.07-2.05.1h-.05c-.67.07-1.33.13-2,.2h-.05c-.67.1-1.33.2-2,.3-.68.11-1.37.22-2.05.35h-.05c-.67.19-1.37.39-2.1.6-.7.2-1.4.42-2.1.65,0,0-.02,0-.05,0-.69.3-1.35.61-2,.95,0,.02-.02.04-.05.05-.66.43-1.22.93-1.7,1.5,0,.03-.02.05-.05.05-.48.75-.7,1.53-.65,2.35v.05c.09.81.41,1.52.95,2.15.51.59,1.07,1.06,1.7,1.4h0c.62.37,1.26.67,1.9.9v-.05c.63.27,1.28.49,1.95.65h-.05c.67.21,1.33.38,2,.5h-.05c.67.19,1.33.34,2,.45l-.05-.05c.68.16,1.35.27,2,.35.68.1,1.35.18,2,.25.68.07,1.35.12,2,.15.67.03,1.33.05,2,.05.68.03,1.37.03,2.05,0h.05c.65,0,1.28-.02,1.9-.05h.05c.67,0,1.33-.03,2-.1.7-.03,1.4-.1,2.1-.2.68-.08,1.37-.19,2.05-.35l-.05.05c.7-.11,1.38-.26,2.05-.45.67-.16,1.34-.34,2-.55h0c.7-.16,1.38-.38,2.05-.65.02,0,.03-.02.05-.05.67-.24,1.3-.54,1.9-.9.67-.39,1.24-.89,1.7-1.5.5-.5.91-1.09,1.25-1.75.12-.25.14-.52.05-.8-.02-.06-.06-.12-.1-.2-.42-1.08-.81-1.74-1.15-2-.24-.22-.64-.52-1.2-.9M40.36,5.95c.13.15.3.47.5.95-.21.38-.46.71-.75,1,0,.03-.02.05-.05.05-.31.43-.69.78-1.15,1.05-.52.3-1.07.55-1.65.75-.02,0-.03,0-.05,0-.58.26-1.18.46-1.8.6l-.05.05c-.64.19-1.29.36-1.95.5-.6.17-1.22.31-1.85.4-.02,0-.03,0-.05,0-.63.14-1.27.24-1.9.3h-.05c-.63.1-1.27.16-1.9.2h-.05c-.63.06-1.27.1-1.9.1h-.05c-.62.03-1.25.05-1.9.05h-.05c-.63.03-1.27.03-1.9,0h-.05c-.65,0-1.3-.02-1.95-.05-.62-.03-1.25-.08-1.9-.15-.62-.07-1.25-.15-1.9-.25h-.05c-.6-.06-1.22-.16-1.85-.3-.02,0-.03,0-.05,0-.6-.09-1.2-.23-1.8-.4h-.05c-.6-.11-1.2-.26-1.8-.45-.02,0-.03-.03-.05-.05-.59-.14-1.17-.32-1.75-.55,0,0-.02,0-.05,0-.52-.17-1.04-.41-1.55-.7v-.05c-.44-.23-.84-.54-1.2-.95-.26-.31-.41-.66-.45-1.05,0-.36.09-.71.3-1.05l-.05.05c.36-.4.77-.75,1.25-1.05h-.1c.57-.29,1.15-.56,1.75-.8.67-.23,1.33-.45,2-.65.71-.19,1.39-.37,2.05-.55h-.05c.65-.11,1.3-.21,1.95-.3.67-.1,1.33-.2,2-.3.65-.07,1.3-.14,1.95-.2.68-.03,1.35-.07,2-.1.68-.03,1.35-.05,2-.05h2.05c.65,0,1.28.02,1.9.05.65.03,1.3.08,1.95.15.65.07,1.3.15,1.95.25.67.1,1.33.2,2,.3l-.05-.05c.67.15,1.33.28,2,.4h-.05c.65.18,1.28.36,1.9.55.59.19,1.14.4,1.65.65h.05c.54.25,1.04.54,1.5.85h.05c.48.36.83.62,1.05.8Z"/>
	<path class="st0" d="M34.01,30.05h-.05c-2.56.6-5.16.99-7.8,1.15h-.05c-2.6.2-5.22.18-7.85-.05-2.59-.23-5.16-.66-7.7-1.3-2.51-.6-5.01-1.32-7.5-2.15-.07-.02-.15-.03-.25-.05-.21-.03-.41,0-.6.1-.05.03-.1.06-.15.1-.02.02-.04.03-.05.05-.19.16-.31.36-.35.6-.66,4.48-.71,7.77-.15,9.85h0c.55,1.97.72,4.76.5,8.35-.23,3.75-.35,7.75-.35,12,.03,4.21.03,8.29,0,12.25-.02.16-.02.31,0,.45.09.27.26.47.5.6,1.78,1.04,3.3,1.81,4.55,2.3,1.27.52,3.19,1.16,5.75,1.9,2.65.79,5.32,1.28,8,1.45,2.77.2,5.48.07,8.15-.4v.05c2.67-.42,5.25-1.12,7.75-2.1,2.45-.92,4.83-1.97,7.15-3.15h.1c.25-.12.41-.32.5-.6.03-.06.05-.14.05-.25,0-.04,0-.09,0-.15v-.05c-.39-3.96-.37-7.01.05-9.15.54-2.25.66-5.55.35-9.9-.3-4.13-.3-8.05,0-11.75.31-3.79.18-7.69-.4-11.7-.03-.19-.11-.36-.25-.5-.08-.12-.2-.22-.35-.3-.17-.06-.35-.08-.55-.05-.13.02-.24.05-.35.1-.64.26-1.57.54-2.8.85v.05c-1.28.39-3.23.86-5.85,1.4M26.26,33.2c2.77-.17,5.48-.57,8.15-1.2,2.71-.56,4.73-1.04,6.05-1.45h-.05c.74-.19,1.37-.37,1.9-.55.43,3.44.51,6.79.25,10.05-.3,3.8-.3,7.81,0,12.05.29,4.09.19,7.19-.3,9.3v.05c-.45,2.14-.52,5.18-.2,9.1-2.08,1.04-4.21,1.97-6.4,2.8-2.37.92-4.82,1.57-7.35,1.95h-.05c-2.5.43-5.05.55-7.65.35-2.55-.16-5.08-.61-7.6-1.35-2.47-.72-4.32-1.34-5.55-1.85-1.06-.42-2.33-1.06-3.8-1.9.03-3.84.03-7.79,0-11.85,0-4.22.12-8.18.35-11.9.25-3.87.06-6.87-.55-9-.42-1.71-.41-4.33.05-7.85,2.17.7,4.35,1.32,6.55,1.85h0c2.67.66,5.35,1.11,8.05,1.35,2.73.24,5.44.25,8.15.05h0Z"/>
</svg>