<?xml version="1.0" encoding="UTF-8"?>
<svg id="new" xmlns="http://www.w3.org/2000/svg" version="1.1" viewBox="0 0 720 768">
  <!-- Generator: Adobe Illustrator 29.8.4, SVG Export Plug-In . SVG Version: 2.1.1 Build 6)  -->
  <defs>
    <style>
      .st0 {
        fill: none;
        stroke: #fdcb59;
        stroke-width: 4px;
      }

      .st0, .st1 {
        stroke-miterlimit: 10;
      }

      .st2 {
        fill: #513b32;
      }

      .st1 {
        fill: #585858;
        stroke: #585858;
      }

      .st3 {
        opacity: .85;
      }

      .st4 {
        fill: #b3b4b5;
      }

      .st5 {
        fill: #dedad7;
      }

      .st6 {
        fill: #44d62c;
      }

      .st7 {
        fill: #334f1d;
      }

      .st8 {
        fill: #6d382a;
      }

      .st9 {
        fill: #b3b4b4;
      }

      .st10 {
        fill: #3c592c;
        isolation: isolate;
      }
    </style>
  </defs>
  <rect id="s_grass" class="st10" y="744" width="720" height="24"/>
  <rect id="s_sidewalk" class="st5" y="660" width="720" height="84"/>
  <rect id="s_sidewalk_buffer" class="st8" y="612" width="720" height="48"/>
  <rect id="s_micro_lane" class="st6" y="552" width="720" height="60"/>
  <rect id="s_micro_lane_buffer" class="st8" y="516" width="720" height="36"/>
  <rect id="s_curb" class="st9" y="510" width="720" height="6"/>
  <rect id="s_lane" class="st1" y="390" width="720" height="120"/>
  <rect id="center_line_pavement" class="st1" y="378" width="720" height="12"/>
  <line id="s_center_line" class="st0" y1="388" x2="720" y2="388"/>
  <line id="n_center_line" class="st0" y1="380" x2="720" y2="380"/>
  <rect id="n_lane" class="st1" y="258" width="720" height="120"/>
  <rect id="n_curb" class="st4" y="252" width="720" height="6"/>
  <rect id="n_micro_lane_buffer" class="st8" y="216" width="720" height="36"/>
  <rect id="n_micro_lane" class="st6" y="156" width="720" height="60"/>
  <rect id="n_sidewalk_buffer" class="st8" y="108" width="720" height="48"/>
  <rect id="n_sidewalk" class="st5" y="24" width="720" height="84"/>
  <rect id="n_grass" class="st10" width="720" height="24"/>
  <rect id="s_tree_pit1" class="st2" x="180" y="612" width="72" height="48"/>
  <rect id="n_tree_pit1" class="st2" x="468" y="108" width="72" height="48"/>
  <rect id="n_tree_pit2" class="st2" x="132" y="108" width="72" height="48"/>
  <rect id="s_tree_pit2" class="st2" x="516" y="612" width="72" height="48"/>
  <g class="st3">
    <path class="st7" d="M417.02,48.67c-23.09-.74-28.89,11.47-38.26,32.59-1.41,3.19-2.47,7.12-.47,9.97,1.47,2.08,4.11,2.89,6.26,4.27,6.49,4.15,7.89,13.18,6.54,20.76s-4.74,14.75-5.41,22.42c-1.15,13.2,5.91,25.75,14.3,35.99s18.41,19.3,25.05,30.76c3.11,5.36,5.46,11.23,9.47,15.95,5.38,6.34,13.24,10.01,21.1,12.71,21.29,7.33,44.52,8.9,66.6,4.5,3.37-6.27-4.98-15.87.61-20.3,1.3-1.03,3.01-1.33,4.66-1.54,24.73-3.18,53.97,4.58,71.86-12.79,12.41-12.06,13.43-31.44,12.36-48.72-.36-5.82-.78-12.05,2.12-17.11,1.97-3.43,5.24-5.89,7.94-8.78,14.32-15.32,10.36-41.32-2.97-57.51-13.34-16.19-33.42-24.95-52.73-33.14-18.67-7.92-38.01-15.98-58.28-15.75-22.66.26-31.8,1.62-45.69,1.03-10.87,2.51-21.21,11.42-22.81,14.59s-5.65,5.41-8.8,3.77"/>
  </g>
  <g class="st3">
    <path class="st7" d="M219.12,514.48c-2.36-8.35-13.61-10.62-21.51-7.31-19.14,8.02-25.7,21.21-47.69,21.78-20.14.53-30.31,17.65-49.21,23.48.87,1.88.49,5.2,1.37,7.14-11.65,6.48-5.29,9.06-6.71,16.92s-13.59,9.93-15.7,18.11c-3.01,11.69-3.82,22.84-3.75,34.87.1,16.07,21.64,17.76,16.78,32.43-6.09,18.38-14.33,24.73,2.3,43.27,8.3,9.25,8.8,25.17,19.98,30.43,13.83,6.51,27.65,13.02,41.48,19.53,2.63,1.24,5.43,2.51,8.31,2.17,5.12-.6,5.28-1.75,9.57-4.66,7.07-4.78,11.44,6.28,19.68,8.36,17.99,4.54,29.88-2.04,47.87,2.51,10.22,2.58,21.77,4.96,30.66-.77,13-8.39,16.39-31.69,31.79-31.69,3.47,0,7.13,1.36,10.31-.06,2.14-.96,3.59-2.99,4.88-4.97,11.77-18.1,24.83-28.28,26.06-49.94,1.03-18.2-8.33-29.07,1.26-44.46,3.13-5.02,7.52-9.48,8.83-15.28,1.61-7.12-1.83-14.34-5.58-20.57-15.91-26.42-39.59-47.93-67.18-61.03-6.42-3.05-7.25-14.5-13.58-11.26-3.63,1.87-6.4,5.5-10.37,6.38-5.25,1.17-10.07-2.82-14.59-5.8-8.58-5.66-15.09-10.64-25.27-9.59"/>
  </g>
  <g class="st3">
    <path class="st7" d="M446.54,573.17c-16.83,6.73-28.24,23.62-31.61,41.43s.41,36.33,7.16,53.15c3.65,9.09,8.25,18.31,7.64,28.09-.56,8.97-5.25,18.99.09,26.22,4.35-.36,8.59-1.92,12.14-4.46,8.82,14.08,20.75,26.2,34.69,35.25,7.78,5.05,16.79,9.27,26.01,8.24s18.12-9.12,17.04-18.34c11.36,11.61,30.22,9.82,46.19,6.82,22.78-4.28,23.75,5.09,46.2-.65,2.09-11.9,32.59-8.61,34.69-20.51,5.12,1.84,3.89-25.88,9.15-27.27s9.56-7.56,6.96-12.34c-3.17-5.84,18.67-16.63,12.98-20.07-8.05-4.88,8.54-14,15.67-20.14s5.45-20.86,10.95-34.84c-13.15-3.39-29.58-11.57-27.05-24.91.83-4.39,3.81-8.29,3.87-12.76.07-5.2-3.78-9.53-7.45-13.22-15.62-15.7-32.38-30.25-50.11-43.51-5.63-4.21-11.49-8.36-18.18-10.53-5.96-1.94-12.32-2.22-18.59-2.49-14.43-.61-28.87-1.23-43.3-1.84-1.73,3.72-3.47,7.45-5.2,11.17-14-8.99-29.17-18.32-45.81-17.74-16.63.59-33.62,16.18-28.98,32.16-8.47-1.49-12.45,10.02-13.01,18.6-1.33,20.56-2.66,41.12-3.99,61.68"/>
  </g>
  <g class="st3">
    <path class="st7" d="M267.1,224.64c4.27-5.77,4.16-20.55,7.87-26.67,5.16-8.52,14.6-13.75,21.19-21.31s9.3-20.5,1.04-26.33c-3.34,4.26-8.66-12.48-12-8.23,9.57-14.27,7.89-11.8,7.18-28.76-.51-12.3-10.69-20.76-7.74-32.74,2.16-8.76,5.25-17.73,3.43-26.56s-11.01-17.05-19.9-14.27c-3.12.98-6.77,3.08-9.26,1.02-2.93-2.42-.1-6.83.45-10.5.98-6.53-6.79-11.75-13.62-11.14s-12.55,5.02-17.83,9.24c3.27-6.68-1.05-14.96-7.54-18.91-6.48-3.95-14.47-4.66-22.12-5.26-5.15-.41-10.29-.81-15.44-1.22-10.22-.81-20.51-1.62-30.73-.66-15.4,1.44-30.07,6.81-44.52,12.14-5.26,1.94-10.75,4.03-14.41,8.15s-4.72,10.93-.75,14.77c-18.47.87-30.88,24.45-20.68,39.29-8.17-3.49-18.51-1.52-24.68,4.69s-7.75,16.25-3.75,23.94c-9.5-5.73-22.74,3.19-24.51,13.85-1.77,10.66,4.22,21.04,10.95,29.67s18.55,12.89,21.6,23.28c2.5,8.49,1.48,17.53,2.54,26.3s5.11,18.23,13.62,21.51,16.49-.58,13.27-8.84c6.14-1.72,12.86,15.99,17.02,20.67,18.67,21,33.77,10.75,54.01,30.36,8.49-7.87,16.65-10.22,27.46-5.72.37-5.09,21.22-.93,26.52-.69s23.12-18.56,32.76-14.68c2.91,1.17,21.93-7.06,19.63-4.95"/>
  </g>
</svg>