<?xml version="1.0" encoding="UTF-8"?>
<svg id="qb" xmlns="http://www.w3.org/2000/svg" version="1.1" viewBox="0 0 104 768">
  <!-- Generator: Adobe Illustrator 29.8.4, SVG Export Plug-In . SVG Version: 2.1.1 Build 6)  -->
  <defs>
    <style>
      .st0 {
        fill: #585858;
      }

      .st1 {
        fill: #fff;
      }

      .st2 {
        stroke: #fdcb59;
      }

      .st2, .st3 {
        fill: none;
        stroke-miterlimit: 10;
        stroke-width: 4px;
      }

      .st3 {
        stroke: #fff;
      }

      .st4 {
        fill: #b3b4b5;
      }

      .st5 {
        fill: #dedad7;
      }

      .st6 {
        fill: #efdbbf;
      }

      .st7 {
        fill: #b3b4b4;
      }

      .st8 {
        fill: #3c592c;
        isolation: isolate;
      }

      .st9 {
        fill: #44d62c;
      }
    </style>
  </defs>
  <rect id="s_grass" class="st8" y="744" width="104" height="24"/>
  <rect id="s_sidewalk" class="st5" y="708" width="104" height="36"/>
  <rect id="s_curb" class="st7" y="702" width="104" height="6"/>
  <rect id="s_sidewalk_ext_pavement" class="st0" y="626" width="104" height="76"/>
  <rect id="s_sidewalk_ext" class="st6" y="626" width="104" height="72"/>
  <rect id="s_sidewalk_ext_divider_n" class="st1" y="622" width="104" height="4"/>
  <rect id="s_micro_lane" class="st9" y="562" width="104" height="60"/>
  <rect id="s_micro_lane_divider_s" class="st1" y="558" width="104" height="4"/>
  <rect id="s_buffer" class="st0" y="534" width="104" height="24"/>
  <line class="st3" x1="2" y1="560" x2="30" y2="532"/>
  <rect id="s_lane_divider" class="st1" y="530" width="104" height="4"/>
  <rect id="s_micro_lane_divider" class="st1" y="530" width="104" height="4"/>
  <rect id="s_lane" class="st0" y="410" width="104" height="120"/>
  <rect id="s_center_line_pavement" class="st0" y="402" width="104" height="8"/>
  <line id="s_center_line" class="st2" y1="408" x2="104" y2="408"/>
  <g id="median">
    <rect class="st5" y="366" width="104" height="36"/>
  </g>
  <rect id="n_center_line_pavement" class="st0" y="358" width="104" height="8"/>
  <line id="n_center_line" class="st2" y1="360" x2="104" y2="360"/>
  <rect id="n_lane" class="st0" y="238" width="104" height="120"/>
  <rect id="n_lane_divider" class="st1" y="234" width="104" height="4"/>
  <rect id="n_buffer" class="st0" y="210" width="104" height="24"/>
  <rect id="n_micro_lane_divider" class="st1" y="206" width="104" height="4"/>
  <line class="st3" x1="2" y1="236" x2="30" y2="208"/>
  <rect id="n_micro_lane" class="st9" y="146" width="104" height="60"/>
  <rect id="n_sidewalk_ext_divider" class="st1" y="142" width="104" height="4"/>
  <rect id="n_sidewalk_ext_pavement" class="st0" y="66" width="104" height="52"/>
  <rect id="n_sidewalk_ext" class="st6" y="70" width="104" height="72"/>
  <rect id="n_curb" class="st4" y="60" width="104" height="6"/>
  <rect id="n_sidewalk" class="st5" y="24" width="104" height="36"/>
  <rect id="n_grass" class="st8" width="104" height="24"/>
  <g id="s_micro_lane_curb">
    <rect class="st7" x="32" y="538" width="72" height="8"/>
    <rect class="st5" x="32" y="540" width="72" height="4"/>
  </g>
  <g id="s_micro_lane_curb1" data-name="s_micro_lane_curb">
    <rect class="st7" x="32" y="222" width="72" height="8"/>
    <rect class="st5" x="32" y="224" width="72" height="4"/>
  </g>
</svg>