<?xml version="1.0" encoding="UTF-8"?>
<svg id="Layer_1" xmlns="http://www.w3.org/2000/svg" version="1.1" xmlns:xlink="http://www.w3.org/1999/xlink" viewBox="0 0 41.95 443.4">
	<!-- Generator: Adobe Illustrator 29.8.4, SVG Export Plug-In . SVG Version: 2.1.1 Build 6)	-->
	<defs>
		<style>
			.st0 {
				fill: url(#linear-gradient2);
			}

			.st1 {
				fill: url(#linear-gradient1);
			}

			.st2 {
				fill: #f8df7d;
			}

			.st3 {
				fill: #efb156;
			}

			.st4 {
				fill: url(#radial-gradient);
			}

			.st5 {
				fill: #f06697;
			}

			.st6 {
				fill: #ffcd34;
			}

			.st7 {
				fill: #6b6b6b;
			}

			.st8 {
				fill: url(#linear-gradient3);
			}

			.st9 {
				fill: url(#linear-gradient);
			}
		</style>
		<linearGradient id="linear-gradient" x1="-446.33" y1="471.62" x2="-441.08" y2="469.57" gradientTransform="translate(461.5 904.64) scale(1 -1)" gradientUnits="userSpaceOnUse">
			<stop offset="0" stop-color="#747474"/>
			<stop offset="1" stop-color="#ababab"/>
		</linearGradient>
		<linearGradient id="linear-gradient1" x1="-428.86" y1="500.35" x2="-455.99" y2="507.75" gradientTransform="translate(461.5 904.64) scale(1 -1)" gradientUnits="userSpaceOnUse">
			<stop offset="0" stop-color="#f0d7b0"/>
			<stop offset="1" stop-color="#e4b670"/>
		</linearGradient>
		<linearGradient id="linear-gradient2" x1="-459.75" y1="836.67" x2="-419.75" y2="836.67" gradientTransform="translate(461.5 904.64) scale(1 -1)" gradientUnits="userSpaceOnUse">
			<stop offset="0" stop-color="#e4b670"/>
			<stop offset="1" stop-color="#f0d7b0"/>
		</linearGradient>
		<radialGradient id="radial-gradient" cx="-442.85" cy="44.75" fx="-442.85" fy="44.75" r="21.79" gradientTransform="translate(464.7 18.27) scale(1 -.27)" gradientUnits="userSpaceOnUse">
			<stop offset=".45" stop-color="#f06697"/>
			<stop offset=".69" stop-color="#ce1d5d"/>
			<stop offset=".89" stop-color="#f06697"/>
		</radialGradient>
		<linearGradient id="linear-gradient3" x1="-460" y1="628.69" x2="-419.5" y2="628.69" gradientTransform="translate(461.45 680.64) scale(1 -1)" gradientUnits="userSpaceOnUse">
			<stop offset="0" stop-color="#aeb3b6"/>
			<stop offset=".29" stop-color="#e3e5e5"/>
			<stop offset=".35" stop-color="#e0e2e1"/>
			<stop offset=".55" stop-color="#b0a8a3"/>
			<stop offset="1" stop-color="#5d5856"/>
		</linearGradient>
	</defs>
	<g>
		<path class="st2" d="M11.35,73.85l-9.6-8L0,376.4l9.6,5.75,1.45-213.95h.05l.25-94.35Z"/>
		<path class="st9" d="M18.65,443.4l5.2-16c-3.43,2.57-6.63,2.57-9.6,0l4.4,16Z"/>
		<path class="st1" d="M40,377.3l-11.25,4.85H9.6l-9.6-5.75,14.25,51c2.97,2.57,6.17,2.57,9.6,0l16.15-50.1Z"/>
		<path class="st6" d="M30.2,168.2h.05l.25-94.35H11.35l-.25,94.35h-.05l-1.45,213.95h19.15l1.45-213.95Z"/>
		<path class="st3" d="M41.75,66.5l-11.25,7.35-.25,94.35h-.05l-1.45,213.95,11.25-4.85,1.4-209.1h.05l.3-101.7Z"/>
		<path class="st0" d="M41.75,66.5l-11.5-4.4H12.55l-10.8,3.75,9.6,8h19.15l11.25-7.35M25.9,66.25c1.1.33,1.65.73,1.65,1.2s-.55.85-1.65,1.15c-1.1.33-2.43.5-4,.5-1.57,0-2.92-.17-4.05-.5-1.07-.3-1.6-.68-1.6-1.15s.53-.87,1.6-1.2c1.13-.3,2.48-.45,4.05-.45s2.9.15,4,.45Z"/>
		<path class="st7" d="M27.55,67.45c0-.47-.55-.87-1.65-1.2-1.1-.3-2.43-.45-4-.45s-2.92.15-4.05.45c-1.07.33-1.6.73-1.6,1.2s.53.85,1.6,1.15c1.13.33,2.48.5,4.05.5,1.57,0,2.9-.17,4-.5,1.1-.3,1.65-.68,1.65-1.15Z"/>
	</g>
	<path class="st5" d="M40.75,31.85V5.95H2.75v26l38-.1Z"/>
	<path class="st4" d="M2.75,6c0,1.63,1.85,3.03,5.55,4.2,3.7,1.2,8.18,1.8,13.45,1.8s9.75-.6,13.45-1.8c3.7-1.17,5.55-2.57,5.55-4.2s-1.85-3.1-5.55-4.3C31.66.62,27.39.05,22.4,0h-.65c-1.79,0-3.49.07-5.1.2-3.13.25-5.91.75-8.35,1.5-3.7,1.2-5.55,2.63-5.55,4.3Z"/>
	<path class="st8" d="M41.95,70.15V27.65c-14.17,5.33-27.67,5.33-40.5,0v42.5c13.5,8.13,27,8.13,40.5,0Z"/>
</svg>