<?xml version="1.0" encoding="UTF-8"?>
<svg id="Layer_1" xmlns="http://www.w3.org/2000/svg" version="1.1" xmlns:xlink="http://www.w3.org/1999/xlink" viewBox="0 0 52 440">
  <!-- Generator: Adobe Illustrator 29.8.4, SVG Export Plug-In . SVG Version: 2.1.1 Build 6)  -->
  <defs>
    <style>
      .st0 {
        fill: url(#linear-gradient2);
      }

      .st1 {
        fill: url(#linear-gradient1);
      }

      .st2 {
        fill: url(#radial-gradient);
      }

      .st3 {
        fill: #f8df7d;
      }

      .st4 {
        fill: #ffcd34;
      }

      .st5 {
        fill: url(#linear-gradient3);
      }

      .st6 {
        display: none;
      }

      .st7 {
        fill: #f06697;
      }

      .st8 {
        fill: #6b6b6b;
      }

      .st9 {
        fill: #efb156;
      }

      .st10 {
        fill: url(#linear-gradient);
      }
    </style>
    <linearGradient id="linear-gradient" x1="-442.31" y1="314.06" x2="-435.57" y2="316.69" gradientTransform="translate(460.76 110.33) rotate(-.3)" gradientUnits="userSpaceOnUse">
      <stop offset="0" stop-color="#747474"/>
      <stop offset="1" stop-color="#ababab"/>
    </linearGradient>
    <linearGradient id="linear-gradient1" x1="-419.5" y1="277.22" x2="-454.77" y2="267.6" gradientTransform="translate(460.76 110.33) rotate(-.3)" gradientUnits="userSpaceOnUse">
      <stop offset="0" stop-color="#f0d7b0"/>
      <stop offset="1" stop-color="#e4b670"/>
    </linearGradient>
    <linearGradient id="linear-gradient2" x1="-460.53" y1="-42.96" x2="-408.54" y2="-42.96" gradientTransform="translate(460.76 110.33) rotate(-.3)" gradientUnits="userSpaceOnUse">
      <stop offset="0" stop-color="#e4b670"/>
      <stop offset="1" stop-color="#f0d7b0"/>
    </linearGradient>
    <radialGradient id="radial-gradient" cx="-438.51" cy="1221.5" fx="-438.51" fy="1221.5" r="27.98" gradientTransform="translate(464.7 -321.86) scale(1 .27)" gradientUnits="userSpaceOnUse">
      <stop offset=".45" stop-color="#f06697"/>
      <stop offset=".69" stop-color="#ce1d5d"/>
      <stop offset=".89" stop-color="#f06697"/>
    </radialGradient>
    <linearGradient id="linear-gradient3" x1="-461.45" y1="178.06" x2="-409.45" y2="178.06" gradientTransform="translate(461.45 -111.36)" gradientUnits="userSpaceOnUse">
      <stop offset="0" stop-color="#aeb3b6"/>
      <stop offset=".29" stop-color="#e3e5e5"/>
      <stop offset=".35" stop-color="#e0e2e1"/>
      <stop offset=".55" stop-color="#b0a8a3"/>
      <stop offset="1" stop-color="#5d5856"/>
    </linearGradient>
  </defs>
  <g id="pencil_bottom">
    <path class="st10" d="M24.64,440l6.57-20.58c-4.39,3.32-8.5,3.34-12.33.06,0,0,5.76,20.51,5.76,20.51Z"/>
    <path class="st1" d="M52,354.99l-14.8,6.3-24.59.13-12.61-7.32,18.88,65.38c3.83,3.28,7.94,3.26,12.33-.06l20.79-64.43Z"/>
    <path class="st3" d="M0,86.91v267.19l12.84,7.32V86.91H0Z"/>
    <path class="st4" d="M12.84,86.91v274.51l24.4-.13V86.91H12.84Z"/>
    <path class="st9" d="M37.23,86.91v274.38l14.77-6.3V86.91s-14.77,0-14.77,0Z"/>
  </g>
  <g id="pencil_top" class="st6">
    <path class="st3" d="M12.84,198.08v-120.82L0,68.4v129.68h12.84Z"/>
    <path class="st4" d="M37.29,198.08l.14-120.95-24.59.13.06,120.82h24.4Z"/>
    <path class="st9" d="M52,198.08V68.4l-14.71,8.73v120.95h14.71Z"/>
    <path class="st0" d="M37.23,62.05l-24.4.12-12.84,6.23,12.84,8.86,24.4-.13,14.77-8.73-14.77-6.35ZM31.41,67.41c1.41.42,2.12.93,2.13,1.53s-.7,1.1-2.11,1.49c-1.41.43-3.12.66-5.13.67s-3.75-.2-5.2-.61c-1.38-.38-2.06-.86-2.06-1.47s.67-1.12,2.05-1.55c1.45-.39,3.18-.59,5.2-.6s3.72.17,5.14.55Z"/>
    <path class="st8" d="M33.54,68.94c0-.6-.71-1.11-2.13-1.53-1.41-.38-3.12-.56-5.14-.55s-3.75.21-5.2.6c-1.37.43-2.05.95-2.05,1.55s.69,1.09,2.06,1.47c1.45.42,3.19.63,5.2.61s3.72-.24,5.13-.67c1.41-.39,2.11-.88,2.11-1.49Z"/>
  </g>
  <g id="eraser">
    <path class="st7" d="M50.46,40.89V7.64H1.67v33.38l48.79-.13Z"/>
    <path class="st2" d="M1.67,7.7c0,2.09,2.38,3.89,7.13,5.39,4.75,1.54,10.5,2.31,17.27,2.31s12.52-.77,17.27-2.31c4.75-1.5,7.13-3.3,7.13-5.39s-2.38-3.98-7.13-5.52C38.79.8,33.31.06,26.9,0h-.83c-2.3,0-4.48.09-6.55.26-4.02.32-7.59.96-10.72,1.93C4.04,3.72,1.67,5.56,1.67,7.7Z"/>
    <path class="st5" d="M52,90.07v-54.57c-18.19,6.84-35.53,6.84-52,0v54.57c17.33,10.44,34.67,10.44,52,0Z"/>
  </g>
</svg>