<?xml version="1.0" encoding="UTF-8"?>
<svg id="Layer_1" xmlns="http://www.w3.org/2000/svg" version="1.1" viewBox="0 0 506.43 331.57">
	<!-- Generator: Adobe Illustrator 29.8.4, SVG Export Plug-In . SVG Version: 2.1.1 Build 6)	-->
	<defs>
		<style>
			.st0 {
				fill: #333;
			}

			.st1 {
				stroke: #373636;
				stroke-opacity: .25;
				stroke-width: 4.46px;
			}

			.st1, .st2, .st3 {
				fill: none;
				stroke-linecap: round;
				stroke-linejoin: round;
			}

			.st4 {
				fill: #ffcd34;
			}

			.st5 {
				fill: #4d4d4d;
			}

			.st2 {
				stroke: #efb156;
				stroke-width: 2.23px;
			}

			.st3 {
				stroke: #fff;
				stroke-opacity: .5;
				stroke-width: 4.46px;
			}

			.st6 {
				fill: #606267;
			}

			.st7 {
				fill: #010101;
			}

			.st8 {
				fill: #404a53;
			}
		</style>
	</defs>
	<path id="driver_outline" class="st3" d="M229.83,36.19c3.9-3.9,8.62-5.86,14.16-5.86s10.26,1.95,14.16,5.86c3.9,3.94,5.86,8.68,5.86,14.22,0,5.54-1.95,10.26-5.86,14.16-3.9,3.94-8.62,5.91-14.16,5.91s-10.26-1.97-14.16-5.91c-3.98-3.9-5.97-8.62-5.97-14.16s1.99-10.28,5.97-14.22ZM228.16,175.88c4.36,4.35,9.62,6.53,15.78,6.52,6.16,0,11.42-2.17,15.78-6.52,4.35-4.36,6.53-9.62,6.52-15.78v-35.13s1.67,2.57,1.67,2.57c1.08,1.64,2.55,2.81,4.41,3.51l33.24,12.16c2.3.82,4.57.71,6.8-.33,2.23-1.04,3.77-2.71,4.63-5.02.86-2.3.76-4.57-.28-6.8s-2.71-3.77-5.02-4.63l-30.5-11.15-17.31-26.52c-.21-.4-.43-.8-.67-1.2-.95-1.56-2.11-3.03-3.49-4.41-4.36-4.35-9.62-6.53-15.78-6.52-6.16,0-11.42,2.17-15.78,6.52-4.35,4.36-6.53,9.62-6.52,15.78v61.17c0,6.16,2.17,11.42,6.52,15.78Z"/>
	<g id="driver">
		<g id="arm">
			<path class="st7" d="M281.19,115.27l-18.07-27.66c-1.34-2.08-3.22-3.36-5.63-3.85-2.42-.52-4.65-.11-6.69,1.23-2.08,1.34-3.38,3.22-3.9,5.63-.48,2.42-.06,4.67,1.28,6.75l19.74,30.17c1.08,1.64,2.55,2.81,4.41,3.51l33.24,12.16c2.3.82,4.57.71,6.8-.33,2.23-1.04,3.77-2.71,4.63-5.02.86-2.3.76-4.57-.28-6.8s-2.71-3.77-5.02-4.63l-30.5-11.15Z"/>
		</g>
		<g id="body">
			<path class="st7" d="M221.63,160.1c0,6.16,2.17,11.42,6.52,15.78,4.36,4.35,9.62,6.53,15.78,6.52,6.16,0,11.42-2.17,15.78-6.52,4.35-4.36,6.53-9.62,6.52-15.78v-61.17c0-6.16-2.17-11.42-6.52-15.78-4.36-4.35-9.62-6.53-15.78-6.52-6.16,0-11.42,2.17-15.78,6.52-4.35,4.36-6.53,9.62-6.52,15.78v61.17Z"/>
		</g>
		<g id="head">
			<path class="st7" d="M229.83,36.19c-3.98,3.94-5.97,8.68-5.97,14.22s1.99,10.26,5.97,14.16c3.9,3.94,8.62,5.91,14.16,5.91s10.26-1.97,14.16-5.91c3.9-3.9,5.86-8.62,5.86-14.16,0-5.54-1.95-10.28-5.86-14.22-3.9-3.9-8.62-5.86-14.16-5.86s-10.26,1.95-14.16,5.86Z"/>
		</g>
	</g>
	<g id="body1" data-name="body">
		<path class="st5" d="M153.49,261.54c0,3.42-.18,6.74-.56,9.98-.96,7.85-3.04,15.23-6.25,22.14h199.75c-3.46-7.04-5.67-14.58-6.64-22.64-.37-3.05-.56-6.19-.56-9.42,0-9.03,1.43-17.45,4.29-25.26l.61-1.56c.56-1.49,1.15-2.96,1.78-4.41h-198.86c.64,1.46,1.23,2.93,1.78,4.41h0c.18.48.36.96.56,1.45,2.71,7.88,4.06,16.32,4.07,25.32Z"/>
		<path class="st4" d="M131.01,207.33c6.97,7.01,12.33,14.69,16.06,23.03h198.86s14.39,0,14.39,0c3.72-8.37,9.07-16.05,16.06-23.03,14.94-14.94,33.01-22.42,54.2-22.42,21.16,0,39.23,7.47,54.2,22.42,8.19,8.19,14.14,17.32,17.84,27.38l.56,1.56h1.84s-11.21-58.94-11.21-58.94c-.45-2.19-1.17-3.72-2.17-4.57-.93-.78-2.88-1.64-5.86-2.57l-145.71-40.71h-180.85s-97.37-8.53-97.37-8.53c-11.82-.19-22.55,2.84-32.18,9.09-12.19,7.96-18.72,19.48-19.57,34.57v56.55s1.34,0,1.34,0c3.08-4.87,6.8-9.48,11.15-13.83,8.47-8.47,17.99-14.55,28.55-18.24,7.95-2.78,16.5-4.18,25.65-4.18,21.16,0,39.23,7.47,54.2,22.42Z"/>
	</g>
	<g id="rollers">
		<g>
			<path class="st8" d="M28.13,310.27c13.42,13.46,29.65,20.19,48.68,20.19,19,0,35.22-6.73,48.68-20.19s20.19-29.7,20.19-48.74-6.73-35.22-20.19-48.68c-13.46-13.42-29.68-20.13-48.68-20.13-19.03,0-35.26,6.71-48.68,20.13-13.46,13.46-20.19,29.7-20.19,48.74s6.73,35.22,20.19,48.68Z"/>
			<path class="st2" d="M28.13,212.85c13.42-13.42,29.65-20.13,48.68-20.13,19,0,35.22,6.71,48.68,20.13,13.46,13.46,20.19,29.68,20.19,48.68s-6.73,35.28-20.19,48.74c-13.46,13.46-29.68,20.19-48.68,20.19-19.03,0-35.26-6.73-48.68-20.19-13.46-13.46-20.19-29.68-20.19-48.68s6.73-35.28,20.19-48.74Z"/>
		</g>
		<g>
			<path class="st8" d="M381.9,310.27c13.42,13.46,29.65,20.19,48.68,20.19,19,0,35.22-6.73,48.68-20.19s20.19-29.7,20.19-48.74c0-19-6.73-35.22-20.19-48.68-13.46-13.42-29.68-20.13-48.68-20.13-19.03,0-35.26,6.71-48.68,20.13-13.46,13.46-20.19,29.7-20.19,48.74,0,19,6.73,35.22,20.19,48.68Z"/>
			<path class="st2" d="M381.92,212.85c13.42-13.42,29.65-20.13,48.68-20.13,19,0,35.22,6.71,48.68,20.13,13.46,13.46,20.19,29.68,20.19,48.68,0,19.03-6.73,35.28-20.19,48.74-13.46,13.46-29.68,20.19-48.68,20.19-19.03,0-35.26-6.73-48.68-20.19-13.46-13.46-20.19-29.68-20.19-48.68,0-19.03,6.73-35.28,20.19-48.74Z"/>
		</g>
	</g>
	<g id="cab">
		<path class="st0" d="M203.12,138.91h19.02s-5.46-62.07-5.46-62.07c-.11-.93-.63-1.43-1.56-1.51h-10.54c-.97,0-1.45.48-1.45,1.45v62.12Z"/>
		<path class="st0" d="M328.78,143.9l9.7-1.49-19.56-127.49-9.7,1.49,19.56,127.49Z"/>
		<path class="st0" d="M180.95,145.37l9.77.97,12.7-128.35-9.77-.97-12.7,128.35Z"/>
		<path class="st6" d="M350.22,20.41V0S174.34,0,174.34,0v20.41s175.88,0,175.88,0Z"/>
		<path class="st5" d="M340.08,188.71v-59.22s-180.85,0-180.85,0v59.22s180.85,0,180.85,0Z"/>
	</g>
	<g id="roller_body_over">
		<g>
			<path class="st4" d="M339.76,279.46v-35.68s-327.91,0-327.91,0v35.68s327.91,0,327.91,0Z"/>
			<path class="st1" d="M339.8,279.45H11.89v-35.68h327.91v35.68Z"/>
		</g>
		<g>
			<path class="st4" d="M495.82,279.41v-35.68s-130.46,0-130.46,0v35.68s130.46,0,130.46,0Z"/>
			<path class="st1" d="M495.83,279.4h-130.46v-35.68h130.46v35.68Z"/>
		</g>
		<path class="st4" d="M506.43,279.41v-35.68s-151.63,0-151.63,0v35.68s151.63,0,151.63,0Z"/>
		<path class="st4" d="M349.09,279.46v-35.68S0,243.78,0,243.78v35.68s349.09,0,349.09,0Z"/>
	</g>
</svg>